<svg xmlns="http://www.w3.org/2000/svg" width="990" height="759" viewBox="0 0 990 759">
  <defs>
    <style>
      .onboarding-logo-badge {
        fill: #fff;
        fill-rule: evenodd;
      }
    </style>
  </defs>
  <path id="Form_2" data-name="Form 2" class="onboarding-logo-badge" d="M431.454,41.268L434,36.413a3.4,3.4,0,0,1,4.4-1.951,3.459,3.459,0,0,1,.424.2,3.208,3.208,0,0,1,1.609,2.562,3.123,3.123,0,0,1,3.621-.4c2.011,1.079,3.084,2.832,1.34,6.2l-2.279,4.451Zm7.107-2.023c0.536-1.079.4-2.024-.537-2.562a1.632,1.632,0,0,0-2.242.554,1.59,1.59,0,0,0-.171.39l-1.342,2.568,2.95,1.483Zm4.961,3.1c0.805-1.483,1.342-2.7-.4-3.641-1.475-.809-2.145.135-3.085,1.753l-1.072,2.158,3.486,1.754ZM444.6,21.3l1.609-1.483,5.9,6.474a2.388,2.388,0,0,0,3.336.525,2.361,2.361,0,0,0,.419-0.39,2.433,2.433,0,0,0,.6-3.389,2.381,2.381,0,0,0-.335-0.387l-5.9-6.474,1.612-1.477,6.034,6.609c1.878,2.158,1.609,4.72-.537,6.743s-4.7,2.023-6.7-.135ZM464.034,7.147l2.012-.943,5.631,11.868-2.011.944Zm15.694-5.664,2.146-.4,1.877,11.059,5.5-.944,0.4,2.023-7.643,1.349ZM500.915,0l4.292,0.675c2.815,0.4,5.362,2.832,4.558,7.417-0.8,4.99-3.888,6.069-6.7,5.664l-4.156-.675Zm2.414,11.6c2.012,0.27,3.62-.27,4.156-3.911,0.537-3.237-.67-4.72-2.681-4.99l-2.011-.27-1.476,8.9Zm20.383-5.389,2.011,0.944-5.632,12-2.012-.944Zm14.482,8.9,1.742,1.618-2.548,10.384,6.3-6.879,1.609,1.484-8.985,9.71-1.608-1.483,2.414-10.519-6.3,6.88-1.606-1.484Zm10.19,21.174c3.889-2.023,7.241-.54,8.448,2.158a4.857,4.857,0,0,1-1.743,6.474l-1.341-1.889c1.207-.943,2.011-2.158,1.207-3.776s-2.817-2.293-5.632-.944c-3.218,1.619-3.754,3.642-2.95,5.26a2.669,2.669,0,0,0,3.458,1.516,2.623,2.623,0,0,0,.564-0.3l-1.206-2.427,1.743-.809,2.146,4.315-1.475.674c-3.085,1.484-5.767.54-7.107-2.158-1.341-2.562-.672-5.8,3.887-8.091h0Zm15.822,37.493-0.4,2.293-9.386.135L563,80.919l-0.268,1.213-9.657,1.347,8.85,3.372-0.4,2.158-12.471-4.855,0.4-2.293,9.387-1.349-8.313-4.45,0.4-2.292h13.275v0Zm-8.715,28.321-1.073,1.888-11.533-6.338,1.073-1.888Zm-12.74,14.3,2.817-2.832,1.475,1.483-7.108,7.148-1.474-1.483,2.816-2.7-7.778-7.957,1.61-1.617ZM528.4,130.009l-2.012.943-2.28-4.989-4.425,2.158,2.28,4.855-2.011.944-5.632-12,2.012-.944,2.413,5.26,4.425-2.157-2.548-5.26,2.011-.945Zm-40.228,8.36-5.229-.808c-2.548-.405-4.158-2.293-3.755-4.856s2.279-3.776,5.1-3.371l2.949,0.54,0.805-4.856,2.145,0.406Zm-4.156-7.012a2.147,2.147,0,0,0-2.533,1.672l-0.016.082a2.014,2.014,0,0,0,1.556,2.385,1.842,1.842,0,0,0,.322.041l2.95,0.406,0.67-4.182Zm-18.371.944-4.56-2.562c-2.279-1.214-3.218-3.507-2.011-5.8a3.866,3.866,0,0,1,4.425-2.024v-5.933l2.146,1.214V123l2.011,1.08,2.414-4.452,2.011,1.08Zm-1.341-7.957c-1.208-.674-2.414-0.674-3.085.674s-0.134,2.293,1.073,2.968l2.548,1.348,2.011-3.642Zm-17.7-5.529-1.476-1.484,9.387-9.305,1.609,1.618Zm-10.728-13.083-2.011-3.775c-1.342-2.563-.939-6.069,3.084-8.1,4.425-2.427,7.241-.54,8.581,2.023l2.007,3.782Zm8.046-8.9c-0.939-1.753-2.415-2.7-5.633-.943-2.816,1.483-3.352,3.372-2.413,5.124l0.938,1.756,8.047-4.181ZM427.031,83.215l-1.207-8.092,2.012-.27,0.936,5.927,3.352-.54-0.8-5.4,2.012-.27,0.8,5.4,3.621-.54L436.817,73.5l2.012-.27,1.206,8.092ZM26.1,337.57H52.974L80.8,254.078h1.151l27.638,83.492h26.871l26.1-134.351H136.848L119.574,294.58H119L88.1,203.216H75.045l-30.9,91.361H43.568L26.3,203.216H0Zm211.12-35.124c-4.99,7.1-11.9,15.931-24.951,15.931-13.628,0-21.692-8.445-22.456-24.184H258.14v-7.488c0-33.013-20.152-53.742-46.639-53.742s-47.02,20.732-47.02,53.742,20.159,53.744,48.175,53.744c21.113,0,33.588-10.364,42.034-22.648Zm-47.407-26.87c0.959-11.324,9.021-20.73,21.692-20.73,13.435,0,21.305,7.869,22.456,20.73H189.813Zm83.679,61.994H299.4V197.458H273.5V337.57h0ZM382.511,296.5c-1.919,12.668-8.253,21.492-20.152,21.492-14.011,0-23.033-10.364-23.033-31.288,0-21.113,9.406-31.289,23.033-31.289,11.707,0,17.465,8.061,19.576,18.619l23.224-4.415c-3.454-22.073-19.769-36.66-42.8-36.66-25.72,0-47.6,19-47.6,53.742s20.728,53.741,47.406,53.741c23.224,0,39.347-13.435,43.953-37.811Zm78.879,21.492c-14.011,0-23.031-10.557-23.031-31.288s9.4-31.289,23.031-31.289,23.036,10.947,23.036,31.289S475.4,317.993,461.39,317.993Zm0,22.456c26.679,0,47.6-19,47.6-53.741s-22.263-53.742-47.6-53.742-47.6,19-47.6,53.739S434.711,340.449,461.39,340.449Zm62.95-2.879h24.184V271.737c0-8.83,5.566-15.739,17.466-15.739s17.657,7.869,17.657,17.083V337.57h22.84V271.737c0-8.83,5.758-15.739,17.465-15.739,12.861,0,17.659,7.869,17.659,17.083V337.57H664.45V267.9c0-20.538-14.778-34.932-39.537-34.932-11.709,0-21.492,5.949-26.49,13.435h-0.385c-4.8-7.678-14.971-13.435-25.911-13.435s-20.153,5.757-24.567,12.667h-0.384v-9.789H524.34V337.57Zm227.243-35.124c-4.991,7.1-11.9,15.931-24.952,15.931-13.627,0-21.692-8.445-22.455-24.184H772.5v-7.488c0-33.013-20.152-53.742-46.639-53.742S678.84,253.7,678.84,286.705s20.152,53.741,48.175,53.741c21.113,0,33.587-10.364,42.033-22.648Zm-47.407-26.87c0.959-11.324,9.02-20.73,21.691-20.73,13.435,0,21.3,7.869,22.456,20.73H704.176Zm132.049,25.718c0,24.185,7.486,36.276,35.887,36.276h10.556V313.579h-8.253c-11.516,0-13.628-4.416-13.628-14.588V256.958h25.335V235.845H860.4V210.893h-23.61v24.952H820.479v21.113h15.739V301.3ZM941.4,317.988c-14.015,0-23.038-10.551-23.038-31.283s9.405-31.289,23.032-31.289,23.032,10.941,23.032,31.289-9.019,31.288-23.03,31.288Zm0,22.456c26.68,0,47.6-19,47.6-53.741s-22.264-53.742-47.6-53.742-47.6,19.006-47.6,53.744,20.921,53.744,47.6,53.744ZM79.171,484.588c4.03,32.245,23.991,47.791,53.933,47.791,30.517,0,49.327-17.849,49.327-41.265,0-19.577-8.445-30.326-38.771-40.685-29.749-10.173-34.164-12.1-34.164-20.153s5.95-14.019,19.765-14.019c15.162,0,21.492,8.638,24.759,19l25.143-6.333c-4.8-25.721-26.3-36.661-49.9-36.661-29.174,0-45.3,18.426-45.3,38.195,0,17.467,9.4,29.751,38.385,38.771,30.134,9.405,34.74,13.052,34.74,23.608s-9.98,15.547-23.991,15.547c-17.85,0-23.608-9.98-26.679-29.75Zm182.716,9.788c-4.991,7.1-11.9,15.931-24.952,15.931-13.627,0-21.692-8.444-22.455-24.183H282.8v-7.489c0-33.013-20.153-53.741-46.64-53.741s-47.019,20.731-47.019,53.741,20.153,53.741,48.175,53.741c21.113,0,33.587-10.364,42.033-22.647Zm-47.407-26.87c0.958-11.325,9.02-20.729,21.691-20.729,13.435,0,21.3,7.869,22.456,20.729H214.48ZM298.159,529.5h24.183V463.668c0-8.83,5.565-15.74,17.466-15.74s17.658,7.87,17.658,17.083V529.5h22.84V463.668c0-8.83,5.758-15.74,17.465-15.74,12.86,0,17.658,7.87,17.658,17.083V529.5h22.84V459.826c0-20.538-14.779-34.932-39.538-34.932-11.708,0-21.492,5.95-26.49,13.434h-0.384c-4.8-7.676-14.97-13.434-25.91-13.434s-20.151,5.759-24.565,12.67H321v-9.788H298.159V529.5Zm186.167-61.418c0-11.132,8.254-20.729,21.88-20.729,14.011,0,24.952,10.172,24.952,31.288,0,20.92-10.941,31.288-24.952,31.288-13.626,0-21.88-9.6-21.88-20.921V468.082Zm-24.95,104.6h24.95V519.712h0.383s7.1,12.667,26.679,12.667c23.609,0,44.721-19,44.721-53.741s-22.648-53.741-45.1-53.741c-19.961,0-27.446,12.667-27.446,12.667h-0.385v-9.788h-23.8v144.91ZM571.46,529.5h25.91V389.388H571.46V529.5h0Zm47.982,0h24.951V427.776H619.442V529.5h0Zm0-116.5h24.951v-23.61H619.442V413h0ZM727.5,488.427c-1.92,12.669-8.254,21.493-20.154,21.493-14.011,0-23.031-10.366-23.031-31.289,0-21.113,9.4-31.288,23.031-31.288,11.709,0,17.466,8.06,19.578,18.618l23.223-4.414c-3.455-22.073-19.768-36.66-42.8-36.66-25.719,0-47.6,19-47.6,53.741s20.73,53.741,47.407,53.741c23.225,0,39.346-13.434,43.952-37.811Zm104.021,5.95c-4.99,7.1-11.9,15.931-24.95,15.931-13.628,0-21.692-8.444-22.457-24.183h68.321v-7.49c0-33.013-20.153-53.741-46.64-53.741s-47.023,20.731-47.023,53.741,20.154,53.741,48.176,53.741c21.112,0,33.588-10.364,42.032-22.647Zm-47.41-26.871c0.96-11.325,9.02-20.729,21.692-20.729,13.436,0,21.305,7.869,22.457,20.729H784.113Zm88.667,17.658h25.911V395.147H872.78v90.017ZM871.628,529.5h28.6V502.247h-28.6V529.5ZM807.017,641.084l-7.985.511v0.615a9.617,9.617,0,0,1,3.378.769,3.6,3.6,0,0,1,1.382,2.967v30.041a2.211,2.211,0,0,1-1.382,2.355,7.5,7.5,0,0,1-2.127.307h-0.124v0.614h11.31v-0.615a7.163,7.163,0,0,1-2.61-.562,2.438,2.438,0,0,1-1.484-2.354V661.043a7.945,7.945,0,0,1,6.739-3.738l0.22,0c2.405,0,4.708,2,4.708,5.578v13.1a2.244,2.244,0,0,1-1.586,2.355,12.522,12.522,0,0,1-2.609.306v0.614h11.465v-0.615a6.075,6.075,0,0,1-2.252-.51,2.362,2.362,0,0,1-1.381-2.356V663.6c0-4.862-2.047-8.086-6.807-8.086-4.4,0-6.449,2.3-8.4,4.2h-0.1V641.443l-0.358-.359m-436.919,0-7.984.511v0.615a9.607,9.607,0,0,1,3.377.769,3.6,3.6,0,0,1,1.382,2.967v30.041a2.211,2.211,0,0,1-1.382,2.355,7.51,7.51,0,0,1-2.127.307h-0.125v0.614H374.55v-0.615a7.163,7.163,0,0,1-2.61-.562,2.437,2.437,0,0,1-1.484-2.354V661.043a7.946,7.946,0,0,1,6.739-3.738c0.074,0,.147,0,0.221,0,2.405,0,4.708,2,4.708,5.578v13.1a2.245,2.245,0,0,1-1.586,2.355,12.531,12.531,0,0,1-2.61.306v0.614h11.463v-0.611a6.075,6.075,0,0,1-2.252-.51,2.363,2.363,0,0,1-1.381-2.356V663.6c0-4.862-2.048-8.086-6.806-8.086-4.4,0-6.449,2.3-8.4,4.2h-0.1V641.443l-0.358-.359m-42.735,0-9.059.511v0.564a11.661,11.661,0,0,1,4.505,1.126,3.642,3.642,0,0,1,1.33,2.968V656.9a15.155,15.155,0,0,0-6.193-1.382,11.823,11.823,0,0,0-11.77,11.873c0,7.677,4.81,12.487,10.952,12.487a9.951,9.951,0,0,0,6.857-3.173l0.2,0.052v2.2l0.358,0.358,7.528-.456v-0.614a7.751,7.751,0,0,1-3.019-.613,2.97,2.97,0,0,1-1.331-2.509V641.443l-0.358-.359m-246.229.461a2.708,2.708,0,0,0-2.454,2.61,2.651,2.651,0,0,0,2.569,2.731h0.086a2.744,2.744,0,0,0,.314-0.019h1.53c-0.2,2.917-2.507,5.066-5.015,6.55l0.461,0.769c3.994-2,6.143-5.426,6.143-8.036h0c0-2.866-.869-4.606-3.633-4.606M526.3,642.92l-0.1,0-0.062,0a2.757,2.757,0,0,0-2.61,2.765,2.653,2.653,0,0,0,2.61,2.609,2.809,2.809,0,0,0,2.714-2.9v-0.014h0a2.557,2.557,0,0,0-2.553-2.462m-128.818,0-0.1,0-0.064,0a2.757,2.757,0,0,0-2.609,2.765,2.655,2.655,0,0,0,2.609,2.61,2.809,2.809,0,0,0,2.714-2.9v-0.016a2.556,2.556,0,0,0-2.553-2.463m-338.41,1.385H45.614v0.613c2.354,0.155,5.988.974,5.988,2.765,0,1.331-.256,2.354-1.075,5.169-1.176,4.144-3.48,11.1-6.244,19.093-3.633-11.566-6.908-21.648-7.574-23.8a5.571,5.571,0,0,1-.2-1.279c0-1.228,3.225-1.843,5.015-1.946v-0.613H26.935v0.613a11.419,11.419,0,0,1,3.787.923,4.925,4.925,0,0,1,2.252,4.1,4.794,4.794,0,0,1-.2,1.28L25.3,672.2c-3.48-11.515-6.6-21.8-7.318-24.106a5.54,5.54,0,0,1-.2-1.279c0-1.228,3.787-1.791,5.578-1.894v-0.613H8.664v0.613a7.861,7.861,0,0,1,3.327.87,3.656,3.656,0,0,1,1.842,2.457c1.28,4.607,5.118,18.015,9.11,31.424h0.921l9.775-27.585c2.048,6.448,5.322,16.888,8.4,27.585h0.87c3.685-10.9,8.137-24.259,10.235-30.554a5.924,5.924,0,0,1,2.61-3.223,8.007,8.007,0,0,1,3.324-.974v-0.613m391.373,3.223h0m0,0h-0.461a13.346,13.346,0,0,1-6.755,2.149,12.8,12.8,0,0,1-4.913-1.177l-0.256.461c1.842,1.534,3.941,2.814,5.271,2.814q0.18,0.009.36,0.009a7.38,7.38,0,0,0,2.3-.367v24.413a2.453,2.453,0,0,1-1.534,2.4,23.892,23.892,0,0,1-3.993.409v0.615H455v-0.615a14.968,14.968,0,0,1-3.787-.614,2.635,2.635,0,0,1-1.484-2.456V655.055a51.415,51.415,0,0,1,.717-7.523m301.91,0.717h-3.431v8.036h-5.117v1.432h5.018v15.048c0,4.5,1.893,6.908,5.731,6.908,3.891,0,5.528-2.969,6.04-6.5h-0.819c-0.513,2.969-1.741,4.606-3.788,4.606-2.917,0-3.582-2-3.582-5.323V657.717h6.96v-1.432h-7.012v-8.036m-101.847,0h-3.429v8.036h-5.114v1.432h5.014v15.048c0,4.5,1.894,6.908,5.733,6.908,3.887,0,5.525-2.969,6.036-6.5h-0.82c-0.511,2.969-1.74,4.606-3.787,4.606-2.917,0-3.582-2-3.582-5.323V657.717h6.96v-1.432H650.51v-8.036m-51.589,0h-3.429v8.036h-5.118v1.432h5.016v15.048c0,4.5,1.9,6.908,5.731,6.908,3.891,0,5.529-2.969,6.04-6.5h-0.819c-0.513,2.969-1.74,4.606-3.787,4.606-2.917,0-3.583-2-3.583-5.323V657.717h6.96v-1.432h-7.011v-8.036m-245.507,0h-3.429v8.036h-5.118v1.432h5.015v15.048c0,4.5,1.9,6.908,5.732,6.908,3.891,0,5.528-2.969,6.04-6.5v0h-0.819c-0.512,2.968-1.739,4.6-3.786,4.6-2.917,0-3.583-2-3.583-5.322V657.717h6.96v-1.432h-7.011v-8.036m67.2,7.216h-0.559l-0.972,1.586a9.659,9.659,0,0,0-5.224-1.535h-0.1c-4.35,0-7.062,2.763-7.062,6.5,0,4.3,2.917,5.884,7.011,7.164,4.145,1.279,6.193,2.252,6.193,4.964,0,2.866-1.587,4.913-5.63,4.913-3.889,0-6.6-3.121-7.574-7.267H406.08l0.256,7.677H406.9l0.973-1.586a11.135,11.135,0,0,0,6.192,2.046h0.007c4.449,0,8.027-2.765,8.027-7.061h0c0-4.247-2.712-6.089-6.96-7.471-4.3-1.382-6.244-1.894-6.244-4.964,0-2.355,1.434-4.145,4.606-4.145,3.429,0,6.091,2.712,6.857,5.988h0.615l-0.357-6.807m87.209,0.048c-4.4,0-6.243,2.455-8.4,4.452a7.117,7.117,0,0,0-6.551-4.452c-4.4,0-6.243,2.354-8.291,4.3h-0.153v-3.583l-0.358-.359-7.165.564v0.511a6.125,6.125,0,0,1,2.661.973,2.839,2.839,0,0,1,1.382,2.4v15.66a2.247,2.247,0,0,1-1.433,2.355,7.513,7.513,0,0,1-2.128.308l-0.124,0v0.618h11.31v-0.615a6.706,6.706,0,0,1-2.558-.562,2.552,2.552,0,0,1-1.536-2.405V661.043a8.122,8.122,0,0,1,6.807-3.735c2.4,0,4.657,1.944,4.657,5.476v13.2a2.229,2.229,0,0,1-1.639,2.355,8.663,8.663,0,0,1-2.149.306v0.614H503.42v-0.615a6.722,6.722,0,0,1-2.456-.51,2.436,2.436,0,0,1-1.485-2.406V660.993a8.023,8.023,0,0,1,6.749-3.685h0.057c2.406,0,4.657,1.944,4.657,5.476v13.2a2.23,2.23,0,0,1-1.637,2.355,10.024,10.024,0,0,1-2.3.306v0.614h11.408v-0.615a7.517,7.517,0,0,1-2.509-.51,2.437,2.437,0,0,1-1.381-2.406V663.91c0-4.863-1.944-8.4-6.7-8.4m431.546,0c-6.857,0-11.413,5.066-11.413,12.334,0,7.42,5.221,12.077,10.952,12.077,7.323,0,11.57-5.782,11.57-12.486h0c0-6.7-4.349-11.924-11.105-11.924m-60.594,0a9.976,9.976,0,0,0-6.959,3.326l-0.205-.052v-2.609l-0.358-.308-7.268.564v0.511a6.763,6.763,0,0,1,2.816.87,3.2,3.2,0,0,1,1.33,2.559v26.766c0,1.126-.359,2.355-1.33,2.661a11.192,11.192,0,0,1-2.764.411v0.613h12.538v-0.613a14.618,14.618,0,0,1-3.429-.717,2.543,2.543,0,0,1-1.432-2.456v-8.753h0.2a9.308,9.308,0,0,0,5.233,1.61c0.217,0,.435-0.007.652-0.023A11.806,11.806,0,0,0,889.52,667.99V667.9h0c0-7.471-4.76-12.384-10.749-12.384m-39.51,0c-6.448,0-10.184,5.937-10.184,11.975,0,6.653,3.378,12.283,10.746,12.283a9.82,9.82,0,0,0,9.009-5.987h0l-0.614-.358c-1.946,3.122-3.43,4.81-7.473,4.81-5.526,0-7.727-5.014-7.727-11.566V666.16h15.353V665.8c0-5.833-2.456-10.286-9.11-10.286m-65.409,0c-6.857,0-11.411,5.066-11.411,12.334,0,7.42,5.219,12.077,10.951,12.077,7.322,0,11.567-5.782,11.567-12.486h0c0-6.7-4.349-11.924-11.106-11.924m-101.847,0c-6.858,0-11.413,5.066-11.413,12.334,0,7.42,5.221,12.077,10.952,12.077,7.32,0,11.567-5.782,11.567-12.486h0c0-6.7-4.35-11.924-11.105-11.924m-52.766,0c-6.448,0-10.184,5.937-10.184,11.975,0,6.653,3.378,12.283,10.747,12.283a9.819,9.819,0,0,0,9.008-5.987h0l-0.614-.358c-1.945,3.122-3.429,4.81-7.472,4.81-5.527,0-7.728-5.014-7.728-11.566V666.16h15.354V665.8c0-5.833-2.457-10.286-9.11-10.286m-68.735,0c-4.4,0-6.345,2.3-8.29,4.2h-0.1v-3.481l-0.359-.359-7.063.564v0.511a5.414,5.414,0,0,1,2.509.819,3.393,3.393,0,0,1,1.381,2.713v15.506a2.246,2.246,0,0,1-1.433,2.355,7.506,7.506,0,0,1-2.128.307H534.9v0.612h11.362v-0.615a7.411,7.411,0,0,1-2.61-.562,2.409,2.409,0,0,1-1.535-2.354V661.043a7.943,7.943,0,0,1,6.739-3.738l0.22,0c2.406,0,4.76,2,4.76,5.578v13.1a2.244,2.244,0,0,1-1.586,2.355,12.533,12.533,0,0,1-2.611.306v0.614h11.41v-0.615a6.07,6.07,0,0,1-2.251-.51,2.364,2.364,0,0,1-1.382-2.356V663.6c0-4.862-2.15-8.086-6.909-8.086m-484.061,0c-6.448,0-10.184,5.937-10.184,11.975,0,6.653,3.378,12.283,10.747,12.283a9.817,9.817,0,0,0,9.008-5.988l-0.613-.359c-1.946,3.123-3.429,4.811-7.472,4.811-5.527,0-7.728-5.014-7.728-11.566v-0.512H75.553V665.8c0-5.833-2.457-10.286-9.11-10.286m227.652,0c-6.448,0-10.184,5.937-10.184,11.975,0,6.653,3.378,12.283,10.747,12.283a9.819,9.819,0,0,0,9.01-5.991l0,0-0.615-.359c-1.944,3.123-3.429,4.811-7.471,4.811-5.528,0-7.728-5.014-7.728-11.566v-0.512h15.353v-0.358c0-5.833-2.457-10.286-9.11-10.286m-43.3,0c-3.788,0-7.677,2.4-7.677,5.425,0,1.176.46,2.4,1.74,2.4,1.484,0,2.507-.87,2.507-1.945,0-.87-0.307-2.56-0.358-3.48a3.918,3.918,0,0,1,3.224-1.692l0.154,0c3.583,0,4.913,2.406,4.913,5.118v3.479c-2.2,1.229-5.579,2.151-8.5,3.276-2.559.973-5.015,2.3-5.015,6.5,0,3.276,2.3,5.169,5.834,5.169a10.1,10.1,0,0,0,7.574-3.532h0.154c0.665,2.3,2.1,3.429,4.2,3.429,2.51,0,3.993-1.587,4.4-6.3l0,0h-0.666c-0.256,2.814-.869,4.248-2.354,4.248-1.637,0-2.2-1.331-2.2-3.071,0-1.69.256-7.012,0.256-11.464,0-6.5-3.429-7.574-8.188-7.574m-23.287,0a9.98,9.98,0,0,0-6.96,3.326l-0.2-.052v-2.609l-0.358-.308-7.267.564v0.511a6.736,6.736,0,0,1,2.814.87,3.2,3.2,0,0,1,1.332,2.559v26.766c0,1.126-.359,2.355-1.332,2.661a11.224,11.224,0,0,1-2.763.411v0.612h12.538v-0.612a14.6,14.6,0,0,1-3.428-.717,2.545,2.545,0,0,1-1.434-2.456v-8.753h0.2a9.313,9.313,0,0,0,5.234,1.61c0.217,0,.434-0.007.652-0.023a11.806,11.806,0,0,0,11.722-11.889V667.9c0-7.471-4.761-12.384-10.748-12.384m-26.051,0c-6.449,0-10.185,5.937-10.185,11.975,0,6.653,3.378,12.283,10.747,12.283a9.818,9.818,0,0,0,9.007-5.989l-0.614-.358c-1.944,3.123-3.429,4.811-7.471,4.811-5.528,0-7.728-5.014-7.728-11.566v-0.512h15.353v-0.358c0-5.833-2.457-10.286-9.109-10.286m-42.885,0a9.982,9.982,0,0,0-6.961,3.326l-0.205-.052v-2.609l-0.357-.315-7.267.564v0.511a6.744,6.744,0,0,1,2.815.87,3.2,3.2,0,0,1,1.331,2.559V687.14c0,1.126-.359,2.354-1.331,2.662a11.231,11.231,0,0,1-2.764.41v0.613h12.539v-0.613a14.559,14.559,0,0,1-3.429-.718,2.542,2.542,0,0,1-1.433-2.456v-8.752h0.2a9.31,9.31,0,0,0,5.233,1.61c0.218,0,.435-0.008.653-0.023a11.807,11.807,0,0,0,11.722-11.89V667.9l0,0c0-7.471-4.759-12.384-10.747-12.384m-38.335,0c-6.448,0-10.184,5.937-10.184,11.975,0,6.653,3.378,12.283,10.747,12.283a9.819,9.819,0,0,0,9.006-5.989l-0.613-.358c-1.944,3.123-3.429,4.811-7.472,4.811-5.527,0-7.727-5.014-7.727-11.566v-0.512H129.35v-0.358c0-5.833-2.457-10.286-9.11-10.286m608.575,0.1c-2,0-4.657,1.229-6.91,4.146h-0.1v-3.532l-0.359-.359-7.062.564v0.511a5.406,5.406,0,0,1,2.507.819,3.39,3.39,0,0,1,1.382,2.713v15.506a2.246,2.246,0,0,1-1.432,2.355,7.523,7.523,0,0,1-2.128.308l-0.124,0v0.615h11.873v-0.615a11.507,11.507,0,0,1-3.276-.562,2.317,2.317,0,0,1-1.381-2.354V661.043c0.716-1.278,2.763-3.684,5.476-3.684h0a4.064,4.064,0,0,0-.358,1.432,2.009,2.009,0,0,0,1.84,2.166c0.053,0,.107.007,0.161,0.007a2.134,2.134,0,0,0,.3-0.022c1.537,0,2.356-1.28,2.356-2.764h0a2.781,2.781,0,0,0-2.762-2.559m-449.255,0c-2,0-4.656,1.229-6.909,4.145h-0.1v-3.531l-0.358-.359-7.063.564v0.511a5.406,5.406,0,0,1,2.508.819,3.39,3.39,0,0,1,1.382,2.713V675.99a2.247,2.247,0,0,1-1.433,2.355,7.51,7.51,0,0,1-2.127.307h-0.125v0.611h11.87v-0.615a11.506,11.506,0,0,1-3.275-.562,2.315,2.315,0,0,1-1.381-2.354V661.043c0.716-1.278,2.762-3.684,5.475-3.684h0a4.037,4.037,0,0,0-.358,1.432,2.01,2.01,0,0,0,1.842,2.166c0.053,0,.107.007,0.16,0.007a2.12,2.12,0,0,0,.3-0.022c1.538,0,2.361-1.28,2.361-2.764l0,0a2.783,2.783,0,0,0-2.764-2.559m-92.636,0c-2,0-4.657,1.229-6.908,4.145h-0.1v-3.531l-0.358-.359-7.062.564v0.511a5.406,5.406,0,0,1,2.507.819,3.39,3.39,0,0,1,1.382,2.713V675.99a2.248,2.248,0,0,1-1.433,2.355,7.515,7.515,0,0,1-2.127.307H172.7v0.611h11.872v-0.615a11.506,11.506,0,0,1-3.275-.562,2.315,2.315,0,0,1-1.382-2.354V661.043c0.717-1.278,2.764-3.684,5.476-3.684h0a4.043,4.043,0,0,0-.358,1.432,2.01,2.01,0,0,0,1.842,2.166c0.053,0,.107.007,0.16,0.007a2.12,2.12,0,0,0,.3-0.022c1.538,0,2.357-1.28,2.357-2.764l0,0a2.783,2.783,0,0,0-2.764-2.559m773.123,0.248-7.063.615v0.564a5.363,5.363,0,0,1,2.507.766,3.058,3.058,0,0,1,1.33,2.559V671.48c0,4.81,1.895,8.342,6.654,8.342,4.4,0,6.142-2.047,8.086-3.992h0.154v3.122l0.357,0.358,6.906-.457v-0.615h-0.029a4.9,4.9,0,0,1-2.376-.614,2.879,2.879,0,0,1-1.331-2.457V656.233l-0.358-.359-8.137.614v0.565c0.111,0,.223-0.007.334-0.007a8.552,8.552,0,0,1,3.2.62,2.986,2.986,0,0,1,1.381,2.559v14.432a7.784,7.784,0,0,1-6.586,3.636l-0.168,0c-2.458,0-4.453-1.894-4.453-5.476V656.233l-0.4-.363m-252.523,0-8.137.614v0.565c0.112,0,.223-0.007.334-0.007a8.543,8.543,0,0,1,3.2.62,2.988,2.988,0,0,1,1.383,2.559v14.432a7.79,7.79,0,0,1-6.589,3.636l-0.168,0c-2.456,0-4.451-1.894-4.451-5.476V656.233l-0.409-.359-7.063.614v0.565a5.356,5.356,0,0,1,2.507.766,3.062,3.062,0,0,1,1.331,2.559v11.106c0,4.811,1.894,8.342,6.653,8.342,4.4,0,6.141-2.047,8.086-3.991h0.154v3.122l0.358,0.357,6.908-.461v-0.615h-0.023a4.909,4.909,0,0,1-2.381-.614,2.879,2.879,0,0,1-1.331-2.457V656.233l-0.358-.359m-122.473,0-8.138.614v0.565c0.113,0,.225-0.007.337-0.007a8.553,8.553,0,0,1,3.194.62,2.98,2.98,0,0,1,1.382,2.559v14.432a7.786,7.786,0,0,1-6.587,3.636l-0.168,0c-2.456,0-4.452-1.894-4.452-5.476V656.233l-0.41-.359-7.062.614v0.565a5.37,5.37,0,0,1,2.508.766,3.065,3.065,0,0,1,1.33,2.559v11.106c0,4.811,1.893,8.342,6.654,8.342,4.4,0,6.14-2.047,8.085-3.991h0.153v3.122l0.359,0.357,6.909-.461v-0.615h-0.029a4.9,4.9,0,0,1-2.376-.614,2.879,2.879,0,0,1-1.331-2.457V656.233l-0.358-.359m-57.065,0-7.574.564v0.41a7.514,7.514,0,0,1,2.968.971,3.149,3.149,0,0,1,1.433,2.559v15.713a2.291,2.291,0,0,1-1.381,2.353,7.483,7.483,0,0,1-2.128.309H521.18v0.51h10.8V678.75a9.565,9.565,0,0,1-2.252-.562,2.48,2.48,0,0,1-1.382-2.407V656.233l-0.358-.359m-128.82,0-7.575.564v0.41a7.5,7.5,0,0,1,2.968.971,3.152,3.152,0,0,1,1.434,2.559v15.713a2.289,2.289,0,0,1-1.383,2.353,7.471,7.471,0,0,1-2.127.309h-0.124v0.51h10.8V678.75a9.606,9.606,0,0,1-2.251-.562,2.484,2.484,0,0,1-1.383-2.407V656.233l-0.357-.359m528.375,0.307H918.79V656.8c0.819,0.1,3.941.87,3.941,1.843a4.9,4.9,0,0,1-.358,1.432c-2.048,5.323-3.839,9.622-5.937,14.636h-0.051c-2.1-5.526-5.066-12.894-6.038-15.608a6.281,6.281,0,0,1-.359-1.075c0-.768,1.638-1.125,2.815-1.176v-0.666H902.776V656.8a4.516,4.516,0,0,1,3.685,2.559c2.455,6.039,3.941,9.774,7.932,20.266-1.843,4.607-4.452,8.957-6.551,9.468v-1.74a2.113,2.113,0,0,0-1.959-2.256c-0.049,0-.1,0-0.147,0-0.065,0-.129,0-0.193.009a2.684,2.684,0,0,0-2.609,2.611c0,2.3,2.2,3.07,3.429,3.07,3.122,0,5.117-2,8.9-10.747,0.409-.922,1.228-3.122,2.3-5.681,2.3-5.476,5.423-12.948,6.192-14.74a6.048,6.048,0,0,1,3.787-2.865h0v-0.562m-817.748,0h-8.751V656.8c0.818,0.1,3.736.665,3.736,1.843a5.916,5.916,0,0,1-.256,1.432c-2.1,5.323-3.838,9.52-5.937,14.535H98.43c-2.1-5.527-5.015-12.845-6.039-15.507a7.993,7.993,0,0,1-.359-1.075c0-.819,1.638-1.126,2.815-1.176v-0.666H84.664V656.8a4.615,4.615,0,0,1,3.839,2.559c3.428,8.291,4.657,11.259,8.24,20.317h0.92a51.262,51.262,0,0,1,2.047-5.527c2.2-5.322,4.554-10.849,6.142-14.535a5.674,5.674,0,0,1,3.94-2.869v-0.559m172.533,1.993h0m-92.636,0h0m283.84,6.961H457.768V667.9H473.53v-2.762M422.1,672.864h0m-60.443.309h0m-97.7.2h0m39.716,0.41h0m-92.638,0v0h0v0m-81.22,0v0h0v0m431.237,5.475h0m-48.8,28.946a9.611,9.611,0,0,0-6.756,2.969c-2.456,2.661-3.428,6.3-3.428,10.6v1.69h-5.273v1.331h5.272v18.372a2.213,2.213,0,0,1-1.382,2.355,7.515,7.515,0,0,1-2.127.307h-0.125v0.612h11.823v-0.615a13.292,13.292,0,0,1-3.276-.563,2.282,2.282,0,0,1-1.331-2.354V724.791h6.4V723.46h-6.4c0-.87,0-2.61.051-3.377,0.308-8.086,2.047-10.952,5.374-10.952H511.1a1.726,1.726,0,0,1,1.4.716,10.783,10.783,0,0,0-.307,2.1,2.217,2.217,0,0,0,2.072,2.352l0.227,0a2.317,2.317,0,0,0,2.256-2.1h0c0-1.894-1.178-3.992-4.5-3.992m303.594,0.052-7.984.511v0.615a9.617,9.617,0,0,1,3.378.769,3.592,3.592,0,0,1,1.381,2.967v30.041a2.209,2.209,0,0,1-1.381,2.354,7.472,7.472,0,0,1-2.128.308h-0.124v0.614H820.3v-0.615a7.181,7.181,0,0,1-2.61-.563,2.437,2.437,0,0,1-1.486-2.354V728.219a7.952,7.952,0,0,1,6.742-3.739l0.219,0c2.405,0,4.708,2,4.708,5.579v13.1a2.241,2.241,0,0,1-1.586,2.354,12.592,12.592,0,0,1-2.61.307v0.614h11.461v-0.615a6.047,6.047,0,0,1-2.252-.511,2.361,2.361,0,0,1-1.382-2.355V730.779c0-4.863-2.047-8.086-6.808-8.086-4.4,0-6.447,2.3-8.4,4.2h-0.1V708.619l-0.358-.359m-68.426,0-9.059.511v0.565a11.622,11.622,0,0,1,4.5,1.125,3.637,3.637,0,0,1,1.331,2.968v10.645a15.158,15.158,0,0,0-6.2-1.381,11.823,11.823,0,0,0-11.77,11.873c0,7.676,4.811,12.486,10.952,12.486a9.945,9.945,0,0,0,6.858-3.173l0.2,0.051v2.2l0.358,0.358,7.533-.46v-0.614a7.726,7.726,0,0,1-3.02-.615,2.971,2.971,0,0,1-1.331-2.507V708.619l-0.357-.359m-201.441,0-8.137.511v0.513a10.528,10.528,0,0,1,3.531.972,3.5,3.5,0,0,1,1.382,2.917v30.089a2.214,2.214,0,0,1-1.382,2.354,7.444,7.444,0,0,1-2.118.308h-0.133v0.515h10.848v-0.512a5.439,5.439,0,0,1-2.251-.562,2.435,2.435,0,0,1-1.382-2.407V708.619l-0.358-.359m-374.22,0-7.983.511v0.513a7.826,7.826,0,0,1,3.377.818,3.468,3.468,0,0,1,1.382,2.97v30.194a2.213,2.213,0,0,1-1.382,2.354,7.456,7.456,0,0,1-2.119.308H164.9v0.511h11.157v-0.512a7.872,7.872,0,0,1-2.508-.614,2.284,2.284,0,0,1-1.432-2.3V735.9a3.161,3.161,0,0,1,2.239-.929c0.072,0,.144,0,0.216.008,3.839,0,7.575,7.473,8.8,11.464h6.909l0,0v-0.512a4,4,0,0,1-1.688-.461,4.271,4.271,0,0,1-1.945-1.536c-3.02-5.526-4.76-9.773-9.928-12.18,1.79-1.79,3.12-3.122,5.168-4.964,1.9-1.689,2.866-2.046,5.835-2.917v-0.512h-9.977v0.563c1.331,0.154,3.736.512,3.736,1.382a1.808,1.808,0,0,1-.615,1.075c-2.149,2.354-6.908,6.961-8.75,8.6V708.619l-0.359-.359m-61.677,0-7.984.511v0.513a7.816,7.816,0,0,1,3.378.818,3.47,3.47,0,0,1,1.382,2.97v30.194a2.212,2.212,0,0,1-1.382,2.354,7.451,7.451,0,0,1-2.119.308H103.22v0.511h11.157v-0.512a7.865,7.865,0,0,1-2.508-.614,2.284,2.284,0,0,1-1.433-2.3V735.9a3.166,3.166,0,0,1,2.241-.929c0.072,0,.144,0,0.216.008,3.837,0,7.574,7.473,8.8,11.464H128.6l0,0v-0.512a3.984,3.984,0,0,1-1.688-.461,4.259,4.259,0,0,1-1.945-1.536c-3.02-5.526-4.76-9.773-9.929-12.18,1.791-1.79,3.122-3.122,5.169-4.964,1.894-1.689,2.866-2.046,5.834-2.917v-0.512h-9.975v0.563c1.33,0.154,3.736.512,3.736,1.382a1.82,1.82,0,0,1-.614,1.075c-2.149,2.354-6.91,6.961-8.752,8.6V708.619l-0.358-.359m580.943,0.461a2.709,2.709,0,0,0-2.458,2.611,2.651,2.651,0,0,0,2.568,2.73h0.079a2.651,2.651,0,0,0,.322-0.019h1.535c-0.2,2.918-2.507,5.067-5.016,6.551l0.461,0.768c3.991-2,6.141-5.426,6.141-8.036,0-2.865-.87-4.606-3.632-4.606m152.21,1.375-0.1,0-0.065,0a2.757,2.757,0,0,0-2.609,2.764,2.653,2.653,0,0,0,2.609,2.61,2.808,2.808,0,0,0,2.713-2.9v-0.014h0a2.556,2.556,0,0,0-2.553-2.462m-285.07,0-0.095,0-0.064,0a2.759,2.759,0,0,0-2.611,2.765A2.655,2.655,0,0,0,558,715.475a2.809,2.809,0,0,0,2.713-2.9v-0.013h0a2.555,2.555,0,0,0-2.553-2.462m-423,0-0.1,0-0.063,0a2.757,2.757,0,0,0-2.61,2.764,2.654,2.654,0,0,0,2.61,2.61,2.809,2.809,0,0,0,2.719-2.9v-0.02h-0.007a2.556,2.556,0,0,0-2.553-2.462m743.89,0.389a2.7,2.7,0,0,0-2.659,3.148c0,1.842,1.843,13.3,2.2,22.21h0.82c0.568-9,2.3-20.418,2.3-22.209h0a2.7,2.7,0,0,0-2.213-3.11,2.657,2.657,0,0,0-.451-0.038m-247.088,1H617.37V712.1a12.938,12.938,0,0,1,3.531.974,2.436,2.436,0,0,1,1.587,2.558v27.124a2.427,2.427,0,0,1-1.587,2.559,17.745,17.745,0,0,1-3.531.511v0.614h27.889l0.821-9.673h-0.714c-0.359,1.484-3.175,5.988-4.4,7.369-0.972,1.075-5.219,1.383-8.189,1.383-5.68,0-6.14-.359-6.14-4.71V715.374a2.335,2.335,0,0,1,1.586-2.559,19.219,19.219,0,0,1,3.736-.717v-0.614m62.693,1.843h0m104.506,2.1h-3.428v8.035h-5.12v1.432h5.015v15.049c0,4.5,1.893,6.907,5.732,6.907,3.891,0,5.529-2.969,6.04-6.5h-0.819c-0.511,2.969-1.74,4.606-3.786,4.606-2.917,0-3.583-2-3.583-5.322V724.892h6.96V723.46h-7.011v-8.035m-121.4,0h-3.428v8.035h-5.118v1.432h5.016v15.049c0,4.5,1.893,6.907,5.731,6.907,3.887,0,5.527-2.968,6.039-6.5h-0.818c-0.513,2.969-1.741,4.606-3.788,4.606-2.917,0-3.582-2-3.582-5.322V724.892h6.96V723.46h-7.012v-8.035m-189.676,0h-3.429v8.035H479.54v1.432h5.015v15.049c0,4.5,1.895,6.907,5.732,6.907,3.894,0,5.535-2.969,6.042-6.5h-0.822c-0.512,2.969-1.739,4.606-3.786,4.606-2.918,0-3.583-2-3.583-5.322V724.892H495.1V723.46h-7.012v-8.035m-209.937,0h-3.428v8.035h-5.114v1.432h5.015v15.049c0,4.5,1.893,6.907,5.732,6.907,3.886,0,5.523-2.969,6.035-6.5h-0.818c-0.512,2.969-1.741,4.606-3.788,4.606-2.917,0-3.582-2-3.582-5.322V724.892h6.96V723.46H278.15v-8.035m-59.928,0h-3.43v8.035h-5.117v1.432h5.016v15.049c0,4.5,1.893,6.907,5.731,6.907,3.887,0,5.524-2.969,6.036-6.5h-0.816c-0.512,2.969-1.74,4.606-3.787,4.606-2.917,0-3.582-2-3.582-5.322V724.892h6.959V723.46h-7.01v-8.035m648.135,7.214h-0.563l-0.972,1.588a9.656,9.656,0,0,0-5.227-1.536h-0.1c-4.351,0-7.063,2.764-7.063,6.5,0,4.3,2.917,5.885,7.012,7.164,4.145,1.28,6.2,2.252,6.2,4.965,0,2.865-1.587,4.913-5.63,4.913-3.889,0-6.6-3.122-7.574-7.268h-0.613l0.256,7.677h0.562l0.973-1.587a11.107,11.107,0,0,0,6.191,2.047h0.01c4.443,0,8.02-2.764,8.02-7.06,0-4.247-2.712-6.09-6.96-7.472-4.3-1.382-6.244-1.9-6.244-4.964,0-2.353,1.434-4.145,4.607-4.145,3.428,0,6.089,2.712,6.857,5.988h0.615l-0.359-6.808m-157.374,0h-0.562l-0.979,1.589a9.651,9.651,0,0,0-5.223-1.536h-0.1c-4.349,0-7.062,2.763-7.062,6.5,0,4.3,2.918,5.884,7.011,7.163,4.145,1.28,6.2,2.253,6.2,4.965,0,2.866-1.586,4.913-5.63,4.913-3.89,0-6.6-3.122-7.574-7.268h-0.615l0.256,7.677h0.563l0.972-1.587a11.108,11.108,0,0,0,6.192,2.047h0.007c4.45,0,8.027-2.765,8.027-7.061,0-4.247-2.712-6.09-6.96-7.471-4.3-1.383-6.243-1.9-6.243-4.965,0-2.353,1.433-4.145,4.605-4.145,3.43,0,6.09,2.712,6.859,5.988h0.617l-0.359-6.808m-502.835,0h-0.566l-0.973,1.588a9.663,9.663,0,0,0-5.228-1.536h-0.095c-4.349,0-7.062,2.764-7.062,6.5,0,4.3,2.918,5.885,7.011,7.165,4.146,1.279,6.193,2.252,6.193,4.964,0,2.865-1.586,4.913-5.629,4.913-3.891,0-6.6-3.122-7.575-7.268H191.61l0.256,7.677h0.563l0.973-1.587a11.108,11.108,0,0,0,6.2,2.047h0.01c4.443,0,8.022-2.764,8.022-7.06,0-4.247-2.712-6.09-6.959-7.471-4.3-1.383-6.244-1.9-6.244-4.965,0-2.353,1.433-4.145,4.606-4.145,3.429,0,6.09,2.712,6.857,5.988h0.614l-0.357-6.808m-51.654.049c-6.7,0-10.848,5.834-10.848,12.078,0,7.063,3.684,12.181,10.337,12.181H154c3.843,0,6.956-1.895,8.9-5.831H162.89l-0.563-.358c-2.3,3.582-4.145,4.657-7.369,4.657-4.657,0-7.318-5.067-7.318-11.053,0-7.729,3.276-11,6.806-11,1.893,0,3.276.768,3.583,2.406,0,0.971-.615.921-0.615,3.173a2.272,2.272,0,0,0,2.241,2.3l0.165,0c1.484,0,2.3-.972,2.3-2.61,0-3.02-2.662-5.937-7.626-5.937m611.142,0c-6.857,0-11.413,5.066-11.413,12.334,0,7.422,5.221,12.077,10.952,12.077,7.319,0,11.567-5.781,11.567-12.486h0c0-6.7-4.351-11.924-11.106-11.924m-187.624,0c-6.857,0-11.411,5.066-11.411,12.334,0,7.422,5.219,12.078,10.951,12.078,7.318,0,11.566-5.782,11.566-12.487h0c0-6.7-4.35-11.924-11.106-11.924m-340.391,0c-3.788,0-7.678,2.4-7.678,5.426,0,1.176.462,2.405,1.741,2.405,1.484,0,2.508-.871,2.508-1.946,0-.869-0.307-2.558-0.359-3.48a3.919,3.919,0,0,1,3.223-1.691c0.052,0,.1,0,0.155,0,3.582,0,4.913,2.4,4.913,5.118v3.479c-2.2,1.229-5.578,2.151-8.5,3.276-2.558.973-5.014,2.3-5.014,6.5,0,3.274,2.3,5.169,5.834,5.169a10.1,10.1,0,0,0,7.574-3.532h0.153c0.666,2.3,2.1,3.428,4.2,3.428h0.007c2.5,0,3.98-1.587,4.389-6.291h-0.662c-0.256,2.815-.871,4.247-2.354,4.247-1.638,0-2.2-1.33-2.2-3.069,0-1.69.256-7.012,0.256-11.464,0-6.5-3.429-7.575-8.188-7.575m287.414,0c-6.858,0-11.413,5.065-11.413,12.333,0,7.422,5.22,12.078,10.952,12.078,7.325,0,11.572-5.782,11.572-12.487h-0.007c0-6.7-4.349-11.923-11.1-11.923m-77.381,0c-6.858,0-11.412,5.065-11.412,12.333,0,7.422,5.22,12.078,10.951,12.078,7.323,0,11.57-5.782,11.57-12.487h0c0-6.7-4.35-11.923-11.105-11.923m-25.381,0a9.974,9.974,0,0,0-6.96,3.326l-0.2-.052v-2.609l-0.361-.311-7.268.563v0.512a6.731,6.731,0,0,1,2.815.871,3.2,3.2,0,0,1,1.33,2.558v26.766c0,1.126-.358,2.354-1.33,2.661a11.238,11.238,0,0,1-2.764.41V758h12.539v-0.613a14.557,14.557,0,0,1-3.429-.717,2.543,2.543,0,0,1-1.433-2.456v-8.752h0.2a9.306,9.306,0,0,0,5.23,1.61q0.327,0,.655-0.024a11.8,11.8,0,0,0,11.716-11.892v-0.079h0c0-7.471-4.76-12.384-10.747-12.384m-87.411,0c-6.858,0-11.413,5.065-11.413,12.333,0,7.422,5.22,12.078,10.952,12.078,7.314,0,11.562-5.782,11.562-12.487h0c0-6.7-4.349-11.923-11.1-11.923m323.4,0.006c-6.449,0-10.185,5.935-10.185,11.975,0,6.653,3.377,12.283,10.748,12.283a9.819,9.819,0,0,0,9.006-5.993l-0.614-.358c-1.945,3.121-3.429,4.811-7.472,4.811-5.527,0-7.728-5.015-7.728-11.566v-0.507h15.353v-0.359c0-5.834-2.456-10.286-9.108-10.286m-181.949.1c-2,0-4.658,1.228-6.909,4.145h-0.1v-3.531l-0.358-.359-7.062.564v0.511a5.406,5.406,0,0,1,2.508.819,3.4,3.4,0,0,1,1.382,2.713v15.506a2.248,2.248,0,0,1-1.434,2.355,7.508,7.508,0,0,1-2.126.307h-0.125v0.615h11.872v-0.615a11.529,11.529,0,0,1-3.274-.563,2.314,2.314,0,0,1-1.383-2.354V728.219c0.717-1.28,2.764-3.684,5.476-3.684h0a4.08,4.08,0,0,0-.358,1.432,2.009,2.009,0,0,0,1.842,2.165c0.055,0,.11.007,0.165,0.007a2.038,2.038,0,0,0,.292-0.021c1.541,0,2.36-1.28,2.36-2.765h-0.005a2.78,2.78,0,0,0-2.763-2.558m-84.644,0c-2,0-4.657,1.228-6.909,4.145h-0.1v-3.531l-0.359-.359-7.062.564v0.511a5.406,5.406,0,0,1,2.508.819,3.392,3.392,0,0,1,1.381,2.713v15.506a2.247,2.247,0,0,1-1.432,2.355,7.517,7.517,0,0,1-2.128.307h-0.124v0.615h11.873v-0.615a11.542,11.542,0,0,1-3.275-.563,2.314,2.314,0,0,1-1.382-2.354V728.219c0.717-1.28,2.763-3.684,5.476-3.684h0a4.082,4.082,0,0,0-.359,1.432,2.009,2.009,0,0,0,1.842,2.165c0.055,0,.11.007,0.165,0.007a2.052,2.052,0,0,0,.293-0.021c1.533,0,2.352-1.28,2.352-2.765h0a2.782,2.782,0,0,0-2.764-2.558m-125.288,0c-2,0-4.657,1.228-6.91,4.145h-0.1v-3.531l-0.362-.362-7.064.563v0.512a5.417,5.417,0,0,1,2.508.818,3.393,3.393,0,0,1,1.382,2.714v15.506a2.244,2.244,0,0,1-1.433,2.354,7.462,7.462,0,0,1-2.125.308h-0.127v0.618h11.874v-0.615a11.543,11.543,0,0,1-3.276-.563,2.317,2.317,0,0,1-1.382-2.354V728.219c0.717-1.28,2.764-3.684,5.476-3.684h0a4.08,4.08,0,0,0-.358,1.432,2.008,2.008,0,0,0,1.842,2.165c0.055,0,.109.007,0.164,0.007a2.052,2.052,0,0,0,.293-0.021c1.537,0,2.356-1.28,2.356-2.765h0a2.781,2.781,0,0,0-2.763-2.558m578.531,0.256-7.574.564v0.408a7.524,7.524,0,0,1,2.968.974,3.147,3.147,0,0,1,1.433,2.557v15.713a2.29,2.29,0,0,1-1.383,2.354,7.444,7.444,0,0,1-2.118.308h-0.134v0.511h10.8v-0.512a9.609,9.609,0,0,1-2.253-.562,2.483,2.483,0,0,1-1.381-2.407V723.409l-0.358-.359m-285.07,0-7.575.564v0.408a7.533,7.533,0,0,1,2.97.974,3.15,3.15,0,0,1,1.432,2.557v15.713a2.291,2.291,0,0,1-1.381,2.354,7.468,7.468,0,0,1-2.12.308h-0.132v0.511h10.8v-0.512a9.614,9.614,0,0,1-2.252-.562,2.482,2.482,0,0,1-1.381-2.407V723.409l-0.359-.359m-189.463,0-8.138.614v0.564c0.11,0,.221-0.007.331-0.007a8.593,8.593,0,0,1,3.2.62,2.99,2.99,0,0,1,1.381,2.56v14.432a7.787,7.787,0,0,1-6.586,3.635l-0.169,0c-2.457,0-4.453-1.893-4.453-5.476V723.409l-0.409-.359-7.062.614v0.564a5.35,5.35,0,0,1,2.507.768,3.055,3.055,0,0,1,1.33,2.557V738.66c0,4.81,1.9,8.342,6.654,8.342,4.4,0,6.141-2.048,8.086-3.992h0.152v3.122l0.36,0.358,6.908-.462v-0.614h-0.027a4.9,4.9,0,0,1-2.378-.615,2.879,2.879,0,0,1-1.331-2.456V723.409l-0.357-.359m-233.54,0-7.574.564v0.408a7.53,7.53,0,0,1,2.968.974,3.152,3.152,0,0,1,1.433,2.557v15.713a2.292,2.292,0,0,1-1.381,2.354,7.463,7.463,0,0,1-2.12.308h-0.133v0.511h10.8v-0.512a9.606,9.606,0,0,1-2.251-.562,2.483,2.483,0,0,1-1.382-2.407V723.409l-0.358-.359m186.2,0.307h-8.753v0.614c0.819,0.1,3.941.87,3.941,1.842a4.9,4.9,0,0,1-.358,1.433c-2.047,5.323-3.838,9.621-5.937,14.636h-0.05c-2.1-5.526-5.067-12.894-6.039-15.608a6.4,6.4,0,0,1-.359-1.075c0-.768,1.638-1.126,2.815-1.177v-0.665H298.265v0.614a4.515,4.515,0,0,1,3.684,2.559c2.457,6.039,3.941,9.774,7.933,20.266-1.843,4.606-4.453,8.955-6.551,9.468v-1.74a2.113,2.113,0,0,0-1.958-2.256c-0.049,0-.1,0-0.148,0s-0.129,0-.193.009a2.684,2.684,0,0,0-2.61,2.609c0,2.3,2.2,3.072,3.428,3.072,3.122,0,5.119-2,8.906-10.747,0.409-.922,1.228-3.122,2.3-5.681,2.3-5.477,5.425-12.949,6.193-14.74a6.051,6.051,0,0,1,3.786-2.865h0v-0.562M646.08,736.765h0m-359.686,3.582h0m-59.933,0h0m459.542,0h0m-435.232.2h0M879,740.911a2.926,2.926,0,0,0-2.917,2.936v0.032a2.885,2.885,0,0,0,2.851,2.917h0.108a2.927,2.927,0,0,0,2.926-2.886v-0.031h0A2.969,2.969,0,0,0,879,740.911m-282.408,0a2.927,2.927,0,0,0-2.917,2.936v0.032a2.883,2.883,0,0,0,2.85,2.917h0.11a2.927,2.927,0,0,0,2.925-2.885v-0.032h0a2.968,2.968,0,0,0-2.969-2.968m71.242,0.052h0m167.308,5.475h0m-598.848-.921c-2.508,0-3.788-1.536-3.788-4.35-0.007-4.657,3.933-6.3,9.665-7.932h0l-0.2,9.161c-1.382,1.689-3.122,3.122-5.681,3.122m184.985,0.871a6.439,6.439,0,0,1-6.073-4.3V727.045a7.6,7.6,0,0,1,5.836-2.763h0c5.681,0,7.88,5.423,7.88,10.744h0c0,7.267-3.225,11.362-7.524,11.362h-0.12m-86.519,0c-5.22,0-7.369-5.58-7.369-11.822,0-5.016,1.586-11.157,7.369-11.157,5.37,0,7.263,5.736,7.263,11.26h0c0,6.3-2.354,11.72-7.267,11.72m112.793,0c-5.221,0-7.37-5.58-7.37-11.822,0-5.016,1.587-11.157,7.37-11.157,5.378,0,7.271,5.736,7.271,11.26h0c0,6.3-2.355,11.72-7.267,11.72m77.379,0c-5.22,0-7.369-5.58-7.369-11.822,0-5.016,1.586-11.157,7.369-11.157,5.378,0,7.277,5.736,7.277,11.26H532.2c0,6.3-2.355,11.72-7.268,11.72m52.979,0c-5.22,0-7.369-5.58-7.369-11.823,0-5.015,1.586-11.156,7.369-11.156,5.374,0,7.267,5.736,7.268,11.26h0c0,6.3-2.355,11.719-7.268,11.719m74.109-13.972c0.154-5.681,2.764-9.007,6.347-9.007,4.3,0,5.169,4.2,5.169,8.906h0l-11.516.1m113.515,13.972c-5.219,0-7.37-5.58-7.37-11.823,0-5.015,1.586-11.156,7.37-11.156,5.373,0,7.266,5.736,7.266,11.26h0c0,6.3-2.353,11.719-7.266,11.719m-27.023-.82c-5.732,0-8.24-5.117-8.24-10.388,0-7.216,3.225-11.771,7.524-11.771,0.05,0,.1,0,0.15,0a6.584,6.584,0,0,1,6.247,4.506V742.7c-1.432,1.483-3.019,2.865-5.68,2.865M249.466,678.345c-2.507,0-3.786-1.536-3.786-4.35,0-4.661,3.942-6.3,9.674-7.936l0,0-0.205,9.161c-1.382,1.689-3.122,3.122-5.681,3.122m-91.885.872a6.44,6.44,0,0,1-6.073-4.3V659.869a7.6,7.6,0,0,1,5.834-2.763h0c5.68,0,7.879,5.424,7.879,10.745l0,0c0,7.266-3.223,11.362-7.523,11.362h-0.119m68.937,0a6.442,6.442,0,0,1-6.074-4.3V659.869a7.6,7.6,0,0,1,5.835-2.763h0c5.682,0,7.882,5.424,7.882,10.745l0,0c0,7.266-3.224,11.362-7.523,11.362h-0.119m651.26,0a6.438,6.438,0,0,1-6.072-4.3V659.869a7.6,7.6,0,0,1,5.834-2.763h0c5.681,0,7.881,5.424,7.881,10.745h0c0,7.267-3.224,11.362-7.524,11.362h-0.119m-559.32-.817c-5.732,0-8.24-5.118-8.24-10.388,0-7.217,3.225-11.772,7.523-11.772,0.05,0,.1,0,0.148,0a6.589,6.589,0,0,1,6.25,4.506v14.789c-1.433,1.485-3.02,2.867-5.681,2.867M114,665.241c0.152-5.68,2.763-9.007,6.345-9.007h0c4.3,0,5.166,4.2,5.166,8.9v0l-11.514.1m81.219,0c0.154-5.68,2.763-9.007,6.346-9.007h0c4.3,0,5.168,4.2,5.168,8.9v0l-11.515.1m92.636,0c0.153-5.68,2.764-9.007,6.345-9.007h0c4.3,0,5.168,4.2,5.168,8.9v0l-11.515.1M671.9,679.212c-5.221,0-7.37-5.579-7.37-11.823,0-5.016,1.587-11.157,7.37-11.157,5.375,0,7.268,5.737,7.268,11.26h0c0,6.3-2.354,11.721-7.267,11.721m101.847,0c-5.22,0-7.369-5.579-7.369-11.823,0-5.016,1.586-11.157,7.369-11.157,5.375,0,7.264,5.737,7.264,11.26h0c0,6.3-2.355,11.721-7.268,11.721m165.513,0c-5.221,0-7.37-5.579-7.37-11.823,0-5.016,1.587-11.157,7.37-11.157,5.377,0,7.27,5.737,7.27,11.26h0c0,6.3-2.353,11.721-7.266,11.721M60.2,665.238c0.154-5.68,2.764-9.007,6.345-9.007,4.3,0,5.168,4.2,5.168,8.908h0l-11.515.1m552.794,0c0.154-5.68,2.764-9.007,6.347-9.007,4.3,0,5.17,4.2,5.17,8.909h0l-11.516.1m220.023,0c0.154-5.68,2.763-9.007,6.346-9.007,4.3,0,5.169,4.2,5.169,8.908h0l-11.515.1m24.924-24.153-8.137.511v0.513a10.527,10.527,0,0,1,3.532.972A3.5,3.5,0,0,1,854.718,646v30.09a2.211,2.211,0,0,1-1.381,2.353,7.483,7.483,0,0,1-2.128.309h-0.124v0.514h10.849V678.75a5.444,5.444,0,0,1-2.252-.562,2.438,2.438,0,0,1-1.381-2.407V641.443l-0.359-.359"/>
  <path id="Form_1" data-name="Form 1" class="onboarding-logo-badge" d="M498.983,54.17l2.42-4.092s-2.416-1.135-2.594,1.354a1.289,1.289,0,0,1-1.258,1.372,1.134,1.134,0,0,1,.014-2.268,1.084,1.084,0,0,1,.236.024,0.9,0.9,0,0,0-1.324-1.093,1.432,1.432,0,0,0-.8-1.467,1.307,1.307,0,0,0-.8,1.467,0.894,0.894,0,0,0-1.323,1.093,1.084,1.084,0,0,1,.236-0.024A1.134,1.134,0,0,1,493.8,52.8a1.29,1.29,0,0,1-1.259-1.372c-0.177-2.489-2.7-1.533-2.7-1.533l2.526,4.271h6.62ZM514.2,67.862c3.8-.46,3.76-3.537,3.76-3.537a8.749,8.749,0,0,1-7.435-1.817s2.988,1.26,5.372,0a3.984,3.984,0,0,0,2.02-3.858c-5.522,1.8-7.514-.15-7.514-0.15a6.363,6.363,0,0,0,4.111-.661,2.928,2.928,0,0,0,1.448-3.841c-4.168,1.951-6.059.965-6.059,0.965a4.048,4.048,0,0,0,3.287-2.379,2.785,2.785,0,0,0-.605-3.223c-2.1,3.1-5.432,2.648-7.7,3.95-1.5.864-.135,2.456-0.135,2.456,1.463-.55,2.767,1.086,2.767,3.521,0,3.469-2.851,5.4-5.872,5.4-3.072,0-4.426-1.333-4.426-4.484,0-1.317.321-1.832,1.294-1.832a1.555,1.555,0,0,1,1.361.711,3.8,3.8,0,0,0,.584-2c0-1.512-1.082-1.882-2.333-1.882h-6.283a1.99,1.99,0,0,0,1.167,2.067s-0.293,2.4-.633,5.043a2.747,2.747,0,0,1-3.054,2.376c-2.837,0-5.882-1.795-5.882-5.4,0-2.072,1.12-4.115,2.767-3.521a1.547,1.547,0,0,0-.018-2.382c-1.709-1.219-5.8-.887-7.815-4.024a2.784,2.784,0,0,0-.605,3.223,4.048,4.048,0,0,0,3.287,2.379s-1.891.986-6.059-.965a2.927,2.927,0,0,0,1.448,3.841,6.363,6.363,0,0,0,4.111.661s-1.992,1.951-7.514.15a3.984,3.984,0,0,0,2.02,3.858c2.384,1.265,5.372,0,5.372,0A8.749,8.749,0,0,1,473,64.325s-0.04,3.076,3.76,3.537a7.986,7.986,0,0,0,5.5-1.756s-0.769,2.907-7.8,3.878c0,0,1.762,3.087,6.037,1.993a8.885,8.885,0,0,0,4.582-3.233s-1.166,3.683-7.16,5.913c0,0,1.869,2.1,5.865.45a9.681,9.681,0,0,0,4.776-4.772,12.369,12.369,0,0,1-3.358,6.144,3.083,3.083,0,0,0,1.666-.089c2.775-1.134,4.526-2.955,4.977-5.811a2.79,2.79,0,0,1,.609,2.33c-0.278,2.136-3.846,4.535-3.846,4.535l0.486,0.724c-0.876.514-2.208,1.3-2.707,1.584-1.039-.639-2.33-1.414-2.594-1.572a1.916,1.916,0,0,0-2.967,1.683,1.81,1.81,0,0,1,2.547-.33c0.16,0.08.961,0.544,1.683,0.985l-0.86.5a1.91,1.91,0,0,0,.082,3.4,1.8,1.8,0,0,1,.914-2.395c0.08-.056.543-0.335,1.162-0.7,0.377,0.237.911,0.607,1.006,0.679a1.8,1.8,0,0,1,.843,2.421,1.91,1.91,0,0,0,.182-3.4c-0.042-.027-0.461-0.319-0.719-0.479,0.348-.206,1.423-0.844,2.159-1.282l0.472,0.7,3.07-1.858a4.843,4.843,0,0,1,.021,1.173c-0.278,2.263-1.531,4.326-4.337,6.2a2.252,2.252,0,0,0,2.272,1.5c1.42,0,2.36-1.586,2.9-2.959-0.629,2.452-.582,4.36,1.249,5.989,1.769-1.593,1.9-3.538,1.27-5.989,0.536,1.373,1.477,2.959,2.9,2.959a2.252,2.252,0,0,0,2.272-1.5c-2.806-1.871-4.059-3.933-4.337-6.2a4.88,4.88,0,0,1,.021-1.172l3.063,1.857,0.474-.705c0.735,0.438,1.815,1.078,2.164,1.285-0.258.159-.677,0.451-0.719,0.479a1.91,1.91,0,0,0,.182,3.4A1.8,1.8,0,0,1,503.6,82c0.095-.071.629-0.442,1.006-0.679,0.619,0.369,1.082.648,1.162,0.7a1.8,1.8,0,0,1,.914,2.395,1.909,1.909,0,0,0,.081-3.4c-0.054-.032-0.385-0.224-0.859-0.5,0.722-.441,1.523-0.905,1.683-0.985a1.811,1.811,0,0,1,2.547.33,1.916,1.916,0,0,0-2.967-1.683c-0.264.157-1.555,0.933-2.594,1.572-0.5-.288-1.836-1.073-2.712-1.587l0.484-.721s-3.528-2.4-3.839-4.535a2.615,2.615,0,0,1,.609-2.33,7.128,7.128,0,0,0,5.008,5.764,3.957,3.957,0,0,0,1.635.136,12.369,12.369,0,0,1-3.358-6.144,9.681,9.681,0,0,0,4.776,4.772c4,1.65,5.865-.45,5.865-0.45-5.994-2.229-7.16-5.913-7.16-5.913a8.885,8.885,0,0,0,4.582,3.233c4.275,1.093,6.037-1.993,6.037-1.993-7.031-.971-7.8-3.878-7.8-3.878A7.986,7.986,0,0,0,514.2,67.862Z"/>
</svg>
