<svg xmlns="http://www.w3.org/2000/svg" width="24" height="24" viewBox="0 0 24 24">
  <path id="Form_1" data-name="Form 1" class="cls-1" d="M17.3,11.34a2,2,0,0,1,.506,0,1.674,1.674,0,0,0,.025-0.942c-0.121-.571-0.286-0.917-0.625-0.863s-0.352.468-.231,1.039A1.914,1.914,0,0,0,17.3,11.34Zm-2.914.452a0.573,0.573,0,0,0,.451.114,0.172,0.172,0,0,0-.032-0.2,1.422,1.422,0,0,0-.628-0.5,1.737,1.737,0,0,0-1.665.2,0.574,0.574,0,0,0-.294.378,0.088,0.088,0,0,0,.088.064,10.544,10.544,0,0,1,1.141-.25A2.016,2.016,0,0,1,14.387,11.792Zm-0.489.274a1.155,1.155,0,0,0-.6.247,0.379,0.379,0,0,0-.154.237,0.071,0.071,0,0,0,.024.057,0.077,0.077,0,0,0,.052.019,0.979,0.979,0,0,0,.232-0.063,2.047,2.047,0,0,1,1.018-.1,0.282,0.282,0,0,0,.269-0.026,0.087,0.087,0,0,0-.009-0.1A0.929,0.929,0,0,0,13.9,12.066Zm2.419,1.006a0.393,0.393,0,0,0,.528-0.091,0.381,0.381,0,0,0-.249-0.467,0.393,0.393,0,0,0-.528.091A0.381,0.381,0,0,0,16.317,13.073ZM17.7,11.886a0.445,0.445,0,1,0,.309.431A0.384,0.384,0,0,0,17.7,11.886ZM5.977,16.13a0.172,0.172,0,0,0-.184-0.021,0.664,0.664,0,0,1-.163.023,0.355,0.355,0,0,1-.3-0.149,0.536,0.536,0,0,1,.013-0.5c0.012-.028.026-0.058,0.041-0.092A1.468,1.468,0,0,0,5.5,14.068a1.178,1.178,0,0,0-1.91-.295,1.4,1.4,0,0,0-.372,1.19,0.13,0.13,0,0,0,.1.1,0.241,0.241,0,0,0,.224-0.2c0-.012.01-0.03,0.017-0.052a1.568,1.568,0,0,1,.16-0.37,0.685,0.685,0,0,1,.437-0.3,0.711,0.711,0,0,1,.534.1,0.667,0.667,0,0,1,.259.811,1.864,1.864,0,0,0-.135.721,0.721,0.721,0,0,0,.65.739,0.558,0.558,0,0,0,.524-0.257A0.109,0.109,0,0,0,5.977,16.13ZM22.1,15.194c-0.011-.037-0.08-0.286-0.175-0.586a4.7,4.7,0,0,0-.194-0.511,1.829,1.829,0,0,0,.338-1.35,1.7,1.7,0,0,0-.5-0.965,4.129,4.129,0,0,0-1.783-.868l-0.454-.124c0-.018-0.024-1.053-0.044-1.5a5.052,5.052,0,0,0-.2-1.316,3.509,3.509,0,0,0-.927-1.627,5.5,5.5,0,0,0,1.835-3.513c0-2.1-2.62-2.729-5.844-1.416l-0.683.285S12.23,0.515,12.212.5C8.535-2.655-2.959,9.911.716,12.963l0.8,0.669A3.823,3.823,0,0,0,1.3,15.425a3.515,3.515,0,0,0,1.24,2.267,3.808,3.808,0,0,0,2.434.964A9.328,9.328,0,0,0,13.5,24c4.11,0.12,7.56-1.776,9.005-5.183a7.05,7.05,0,0,0,.5-2.268A1.164,1.164,0,0,0,22.1,15.194ZM5.286,17.745a2.019,2.019,0,0,1-.381.026A2.947,2.947,0,0,1,2.19,15.336a2.411,2.411,0,0,1,1.926-2.812,2.3,2.3,0,0,1,.556-0.039,2.346,2.346,0,0,1,2.087,2.192C6.981,16.086,6.629,17.52,5.286,17.745ZM3.9,11.662a3.166,3.166,0,0,0-2,1.253,5.39,5.39,0,0,1-.848-0.8c-0.71-1.326.775-3.9,1.812-5.359C5.429,3.155,9.444.432,11.3,0.926a7.243,7.243,0,0,1,1.3,1.225,26.206,26.206,0,0,0-3.58,2.427A16,16,0,0,0,3.9,11.662Zm13.029,5.545a0.072,0.072,0,0,0,.043-0.072,0.068,0.068,0,0,0-.075-0.06,8.832,8.832,0,0,1-3.781-.378c0.2-.64.732-0.409,1.536-0.345a11.414,11.414,0,0,0,3.709-.394A8.559,8.559,0,0,0,21.133,14.6a5.422,5.422,0,0,1,.387,1.3,0.653,0.653,0,0,1,.407.073,0.781,0.781,0,0,1,.216.9,4.928,4.928,0,0,1-1.411,2.72,5.8,5.8,0,0,1-1.694,1.245,7.226,7.226,0,0,1-1.106.46c-2.912.935-5.892-.093-6.853-2.3a3.512,3.512,0,0,1-.193-0.522,4.523,4.523,0,0,1,1.025-4.3h0a0.387,0.387,0,0,0,.135-0.256,0.448,0.448,0,0,0-.1-0.243c-0.38-.542-1.7-1.466-1.433-3.255a2.464,2.464,0,0,1,2.4-2.136L13.176,8.3c0.462,0.027.864,0.085,1.244,0.1a2.515,2.515,0,0,0,1.885-.619,1.467,1.467,0,0,1,.722-0.4A0.9,0.9,0,0,1,17.3,7.35a0.921,0.921,0,0,1,.464.146,2.318,2.318,0,0,1,.648,1.846c0.016,0.359.06,1.229,0.075,1.479a0.629,0.629,0,0,0,.5.751c0.174,0.056.335,0.1,0.572,0.164a3.251,3.251,0,0,1,1.414.659,0.869,0.869,0,0,1,.258.5c0.085,0.608-.48,1.359-1.975,2.042a10.188,10.188,0,0,1-4.987.785l-0.48-.053a1.352,1.352,0,0,0-1.063,2.2,3.521,3.521,0,0,0,2.733,1.015A7.264,7.264,0,0,0,20.9,16.809a1,1,0,0,0,.061-0.085c0.037-.055.007-0.086-0.04-0.054a9.493,9.493,0,0,1-6.306,1.572,3.969,3.969,0,0,1-.683-0.183,1.216,1.216,0,0,1-.867-0.892A5.822,5.822,0,0,0,16.929,17.207Zm-3.758-.436h0v0ZM8.633,6.737A10.792,10.792,0,0,1,11.671,4.3a0.039,0.039,0,0,1,.053.053,2.852,2.852,0,0,0-.282.677,0.041,0.041,0,0,0,.063.042,5.981,5.981,0,0,1,2.666-.926,0.041,0.041,0,0,1,.028.074,2.248,2.248,0,0,0-.419.414,0.04,0.04,0,0,0,.032.064,5.293,5.293,0,0,1,2.229.575,0.052,0.052,0,0,1-.035.092,9.223,9.223,0,0,0-4.038.011A9.355,9.355,0,0,0,8.689,6.8,0.041,0.041,0,0,1,8.633,6.737Z"/>
</svg>
