<svg xmlns="http://www.w3.org/2000/svg" width="45" height="48" viewBox="0 0 45 48">
  <path id="Form_1" data-name="Form 1" class="cls-1" d="M33.85,22.68a3.824,3.824,0,0,1,.989,0,3.418,3.418,0,0,0,.048-1.884c-0.237-1.143-.559-1.834-1.223-1.727s-0.689.936-.451,2.078A3.872,3.872,0,0,0,33.85,22.68Zm-5.7.9a1.1,1.1,0,0,0,.882.227,0.35,0.35,0,0,0-.062-0.407,2.8,2.8,0,0,0-1.229-.994,3.336,3.336,0,0,0-3.258.393,1.147,1.147,0,0,0-.576.756,0.174,0.174,0,0,0,.173.127,20.242,20.242,0,0,1,2.233-.5A3.872,3.872,0,0,1,28.148,23.584Zm-0.956.548a2.234,2.234,0,0,0-1.179.494,0.761,0.761,0,0,0-.3.474,0.144,0.144,0,0,0,.047.113,0.148,0.148,0,0,0,.1.039,1.879,1.879,0,0,0,.453-0.126,3.922,3.922,0,0,1,1.993-.208,0.542,0.542,0,0,0,.526-0.053,0.177,0.177,0,0,0-.018-0.2A1.8,1.8,0,0,0,27.192,24.133Zm4.732,2.013a0.652,0.652,0,1,0-.488-0.934A0.766,0.766,0,0,0,31.924,26.146Zm2.7-2.373a0.9,0.9,0,1,0,.6.863A0.764,0.764,0,0,0,34.626,23.772ZM11.695,32.259a0.33,0.33,0,0,0-.36-0.043,1.277,1.277,0,0,1-.318.045,0.69,0.69,0,0,1-.583-0.3,1.093,1.093,0,0,1,.025-1.008c0.023-.055.05-0.117,0.08-0.183a2.993,2.993,0,0,0,.218-2.636,2.323,2.323,0,0,0-1.778-1.3,2.279,2.279,0,0,0-1.958.71,2.841,2.841,0,0,0-.727,2.38,0.256,0.256,0,0,0,.2.2,0.474,0.474,0,0,0,.438-0.4c0.009-.023.02-0.059,0.034-0.1a3.174,3.174,0,0,1,.314-0.741,1.341,1.341,0,0,1,.855-0.594,1.365,1.365,0,0,1,1.045.2A1.35,1.35,0,0,1,9.684,30.1a3.8,3.8,0,0,0-.265,1.442,1.428,1.428,0,0,0,1.272,1.477,1.085,1.085,0,0,0,1.025-.513A0.221,0.221,0,0,0,11.695,32.259Zm31.546-1.87c-0.021-.074-0.156-0.572-0.343-1.172a9.535,9.535,0,0,0-.379-1.023,3.722,3.722,0,0,0,.661-2.7,3.424,3.424,0,0,0-.988-1.929,8.014,8.014,0,0,0-3.487-1.737c-0.194-.055-0.832-0.231-0.889-0.248,0-.037-0.047-2.106-0.085-2.994a10.309,10.309,0,0,0-.392-2.632A7.058,7.058,0,0,0,35.526,12.7c2.213-2.306,3.594-4.846,3.591-7.025C39.111,1.485,33.991.217,27.682,2.843l-1.337.571C26.34,3.408,23.929,1.03,23.893,1,16.7-5.31-5.79,19.822,1.4,25.926l1.571,1.338a7.8,7.8,0,0,0-.437,3.586,7.076,7.076,0,0,0,2.427,4.534,7.361,7.361,0,0,0,4.762,1.927c2.8,6.483,9.191,10.459,16.687,10.683,8.041,0.24,14.791-3.553,17.619-10.367A14.36,14.36,0,0,0,45,33.093C45,31.181,43.925,30.389,43.241,30.389Zm-32.9,5.1a3.858,3.858,0,0,1-.745.053,5.812,5.812,0,0,1-5.313-4.87C4,27.791,5.461,25.574,8.053,25.048a4.392,4.392,0,0,1,1.088-.078c1.453,0.08,3.593,1.2,4.083,4.383C13.658,32.171,12.97,35.04,10.342,35.491ZM7.63,23.324A6.179,6.179,0,0,0,3.723,25.83a10.65,10.65,0,0,1-1.66-1.609C0.674,21.57,3.579,16.415,5.608,13.5,10.623,6.31,18.476.864,22.112,1.852,22.7,2.02,24.661,4.3,24.661,4.3a51.194,51.194,0,0,0-7,4.853A31.969,31.969,0,0,0,7.63,23.324ZM33.122,34.413A0.144,0.144,0,0,0,33.2,34.27a0.134,0.134,0,0,0-.147-0.12,16.921,16.921,0,0,1-7.4-.757c0.391-1.279,1.432-.817,3.006-0.69a21.866,21.866,0,0,0,7.256-.788A16.594,16.594,0,0,0,41.347,29.2a11.037,11.037,0,0,1,.758,2.6,1.255,1.255,0,0,1,.8.146c0.342,0.212.594,0.652,0.422,1.791a9.931,9.931,0,0,1-2.76,5.441,11.378,11.378,0,0,1-3.314,2.491,13.966,13.966,0,0,1-2.165.919c-5.7,1.871-11.529-.186-13.409-4.6a7.109,7.109,0,0,1-.377-1.043,9.193,9.193,0,0,1,2-8.6,0,0,0,0,0,0,0,0.779,0.779,0,0,0,.265-0.512,0.906,0.906,0,0,0-.2-0.486c-0.744-1.085-3.32-2.933-2.8-6.509a4.858,4.858,0,0,1,4.691-4.272c0.176,0.009.352,0.02,0.528,0.03,0.9,0.054,1.691.17,2.435,0.2A4.851,4.851,0,0,0,31.9,15.555a2.855,2.855,0,0,1,1.412-.8,1.716,1.716,0,0,1,.539-0.053,1.775,1.775,0,0,1,.908.292c1.063,0.711,1.213,2.432,1.268,3.692,0.031,0.719.118,2.458,0.147,2.957,0.068,1.142.366,1.3,0.97,1.5,0.34,0.112.655,0.2,1.12,0.327a6.3,6.3,0,0,1,2.766,1.317,1.751,1.751,0,0,1,.5.994C41.7,27,40.6,28.5,37.672,29.865a19.545,19.545,0,0,1-9.758,1.57l-0.939-.107c-2.144-.29-3.367,2.5-2.08,4.4,0.829,1.23,3.088,2.03,5.348,2.031,5.182,0,9.165-2.224,10.646-4.145a2.027,2.027,0,0,0,.119-0.17c0.073-.111.013-0.171-0.078-0.109-1.21.833-6.587,4.138-12.338,3.144a7.627,7.627,0,0,1-1.337-.365,2.4,2.4,0,0,1-1.7-1.783C30.2,35.777,33.122,34.413,33.122,34.413Zm-7.352-.873h0v0ZM16.891,13.475a21.2,21.2,0,0,1,5.943-4.883,0.078,0.078,0,0,1,.1.106,5.78,5.78,0,0,0-.552,1.354,0.08,0.08,0,0,0,.123.085,11.539,11.539,0,0,1,5.217-1.852,0.083,0.083,0,0,1,.055.148,4.453,4.453,0,0,0-.821.828,0.08,0.08,0,0,0,.062.128,10.178,10.178,0,0,1,4.362,1.149,0.1,0.1,0,0,1-.068.184,17.662,17.662,0,0,0-7.9.021A18.107,18.107,0,0,0,17,13.594,0.081,0.081,0,0,1,16.891,13.475Z"/>
</svg>
